<?xml version="1.0" encoding="UTF-8"?>
<svg id="Ebene_1" data-name="Ebene 1" xmlns="http://www.w3.org/2000/svg" xmlns:xlink="http://www.w3.org/1999/xlink" viewBox="0 0 2000.37 1713.4">
  <defs>
    <style>
      .cls-1 {
        fill: #fff;
      }

      .cls-2 {
        clip-path: url(#clippath);
      }

      .cls-3 {
        fill: none;
      }
    </style>
    <clipPath id="clippath">
      <rect class="cls-3" width="2000.37" height="1713.4"/>
    </clipPath>
  </defs>
  <g class="cls-2">
    <path class="cls-1" d="M971.36,1002.09c1.8-.9,3.15-3.16,4.05-4.51,1.8-3.16,3.6-6.31,4.95-9.47,3.6-8.12,6.75-16.23,9.45-24.35,2.25-6.76,4.5-14.43,2.7-21.64-1.8-6.76-4.95-13.07-10.8-17.58-10.8-9.47-26.99-8.57-39.59-4.96-15.3,4.06-29.69,11.72-43.19,19.84-22.94,13.98-44.54,30.21-64.33,47.79-25.64,22.99-49.49,48.24-71.08,74.84-24.74,31.11-47.24,65.37-59.38,103.69-5.85,17.13-9,35.62-7.65,53.65,.45,9.47,2.25,19.39,9,27.05,13.05,14.43,35.09,12.17,51.73,6.76,23.84-7.66,45.89-20.74,66.58-34.26,24.74-15.78,48.59-32.91,72.43-50.5,20.69-15.33,41.39-31.56,62.08-46.44,6.3-4.96,12.6-9.47,19.34-13.53,2.25-1.35,4.95-2.71,7.2-4.51,.9-.45,1.8-.9,3.15-1.8,.9-.45,2.7-.9,3.15-1.8-.9,.45-1.35,.9-2.25,1.35,.45,0,.45-.45,.9-.45,2.7-.9,4.05-3.61,1.8-6.31-2.25-2.25-6.75-4.06-9.9-2.71h2.7c-4.05-.45-8.1,1.8-11.7,3.61-3.15,1.35-6.3,3.61-9,5.41-8.55,5.41-16.2,11.27-24.29,17.13-21.59,16.23-42.74,32.46-64.78,48.69-23.39,17.13-47.24,34.26-71.98,49.59-11.25,6.76-22.49,13.07-33.74,18.48-2.7,1.35-5.4,2.25-8.1,3.61,0,0-.45,0-.9,.45-.9,.45,1.35-.9,.45-.45-.9,.45-1.35,.9-1.8,.9-1.35,.45-2.7,.9-4.05,1.35-4.5,1.8-9,3.16-13.95,4.51-.9,0-2.25,.45-3.15,.45-.45,.45-2.7,.45,0,0-.45,.45-1.35,.45-1.8,.45-1.8,.45-4.05,.45-5.85,.45h-1.35c-1.8,0,1.8,0,.45,0h-3.15c-.9-.45-4.05-.9-.45-.45-.9,0-1.8,0-2.25-.45-.45,0-.9-.45-1.35-.45-1.35-.45,2.25,.9,.9,.45-.9-.45-1.8-.9-2.25-1.35-1.8-.9,1.35,1.35,.45,.45q-.45-.45-.9-.45c-.9-.9-3.15-2.71-.9-.9-.45-.45-.9-.9-1.35-1.35-.45-.9-2.25-3.16-.9-1.35-.9-1.35-1.8-2.71-2.7-4.51,0-.9-.45-1.8-.9-2.7,0-.9,.45,1.35,.45,.45,0-.45-.45-.45-.45-.9s0-.9-.45-1.35c-.45-3.16-.9-5.86-.9-9.02-.45-4.06-.45-8.57-.45-12.62,0-4.96,.45-8.11,.9-12.62,2.7-18.49,8.55-36.52,16.65-53.2,16.2-35.62,40.94-68.53,67.03-97.83,11.7-13.53,23.84-26.15,36.44-38.32,4.95-4.96,10.35-9.92,15.75-14.43,2.25-2.25,4.5-4.06,6.75-5.86,.9-.9,1.8-1.8,3.15-2.71,.45-.45,.9-.9,1.35-1.35-1.35,1.35,.45,0,.9-.45,22.04-18.03,45.89-35.62,71.98-47.34,1.35-.9,3.15-1.8,4.95-2.71,1.35-.45-1.35,.9,.45,0,.45,0,.9-.45,.9-.45,1.35-.45,2.25-.9,3.15-.9,3.15-1.35,6.75-2.25,9.9-3.16,1.8-.45,3.15-.9,4.95-1.35,1.35,0-1.8,.45-.45,0h3.6c1.35-.45,3.15-.45,4.5-.45-2.7,0-.45,0,.45,0,.45,.45,1.35,.45,2.25,.45,2.25,.45-1.8-.45,0,0,.9,0,1.35,.45,1.8,.45s.45,.45,.9,.45c1.35,.45-1.8-.9-.9-.45,.9,.45,1.35,.9,2.25,.9,1.35,.9-1.8-.9,0,.45,.45,.45,.9,.45,1.35,.9,1.35,1.35-.9-.9,.45,.45,.45,.45,.9,.9,1.35,1.8,.45,0,.45,.45,.9,.9,.45,.9-.9-1.35-.45-.45,.45,.45,.9,1.35,1.35,1.8,.45,1.35,1.35,3.16,1.8,4.51,0,.45,.45,1.8,0,.45q0,.45,.45,.9c0,.9,.45,1.8,.45,2.71v2.71c0,.9,0-.9,0,.9-1.35,9.92-5.4,19.84-9,29.3-1.8,4.51-4.05,8.57-6.3,13.07-.45,.9,.45-.9,0,0-.45,.45-.45,.9-.9,.9,0,.9-.45,1.35-.9,2.25-.45,.45-.9,.9-1.35,1.35-.9,.9,1.35-.45,.45,0-3.15,1.35-1.8,4.96,.45,6.76,2.7,2.25,7.2,3.16,10.35,1.35h0Z"/>
    <path class="cls-1" d="M1048.36,1107.14v0Zm77.83-12.62c-5.85,2.25-12.15,4.06-18.44,5.86-3.6,1.35-7.2,2.25-11.25,3.16l-6.3,1.35c-.9,0-1.8,0-3.15,.45h-1.8c1.35,0-.45,.45-.45,.45l-12.15,1.35h-10.35c-4.05-9.02-16.2-10.82-24.74-5.86-3.15,1.8-1.8,5.41,.45,6.76,3.15,2.71,7.2,4.51,11.25,6.31v1.35c0,.9-.45,1.35-.45,2.25-.45,3.16-.9,5.86-1.8,9.02-2.25,8.57-5.4,17.13-9,25.7-8.55,21.64-19.79,42.38-31.94,62.22-8.55,13.98-17.99,27.5-27.89,41.03,10.35-33.36,21.14-66.72,33.74-98.73,16.65-41.93,36.44-82.05,61.63-119.47,8.55-12.17,17.09-24.35,26.54-36.07,4.5-5.86,9.45-11.72,14.85-17.58l8.1-9.47,3.6-4.06c.9,0,1.8-.45,2.25-.9,.9-1.8,2.25-4.06,1.8-5.86-.9-4.06-6.3-6.31-9.9-4.96-1.8,.45-3.6,1.35-4.95,3.16l-3.15,3.16-6.75,7.66c-4.5,4.51-8.55,9.47-12.6,14.43-7.65,9.47-14.85,18.94-22.04,28.85-13.5,18.49-26.09,38.32-36.89,58.16-22.04,39.68-39.14,82.05-53.53,124.88-9.9,28.85-18.44,58.61-27.44,87.91-.45,2.71,1.8,4.96,4.05,5.86,2.7,1.35,5.85,1.8,8.55,.45,3.6-1.8,6.3-5.86,9-9.02,4.95-5.86,9.45-12.17,13.95-18.03,12.6-17.58,24.74-35.62,35.54-54.1,12.15-20.29,22.94-41.48,31.04-63.57,2.7-7.66,5.4-14.88,6.75-22.54,.45-3.16,.9-6.31,1.35-9.02,8.1,.45,16.65-.45,24.29-.9,12.15-1.8,24.74-4.96,36.89-9.02,3.6,.9,6.75,0,9.45-1.8,1.35-.9,2.7-2.25,2.7-4.06,.9-4.96-6.75-8.57-10.8-6.76h0Z"/>
    <path class="cls-1" d="M1227.93,1025.08c10.35-13.52,20.69-27.05,32.84-38.77l4.5-4.06c3.6-2.71,6.3-5.86,10.35-7.66-.45,3.61-1.35,6.76-2.7,9.92-1.8,4.96-4.05,8.11-5.85,11.72l-2.7,4.51c-8.1,13.07-17.54,25.7-26.99,37.42-7.65,9.47-15.3,18.49-23.39,27.5-5.85,6.31-12.15,12.17-18.44,18.03-3.15,3.16-6.3,6.31-9.45,9.02,0-.45,.45-.45,.45-.9,12.15-23.44,26.09-45.53,41.39-66.72h0Zm75.13,68.53c-2.25-2.25-6.3-3.61-9.45-2.71-12.15,3.61-24.29,7.66-36.89,10.37-14.4,3.16-16.65,2.71-22.94,3.16h-2.7c0-1.35-.45-2.71-.9-4.06-4.05-6.31-12.15-7.66-18.44-4.51-4.95,1.8-7.65,7.66-4.05,12.17,1.8,2.25,4.05,3.61,6.75,4.51l-.45,.45c-4.05,7.21-9.45,13.98-15.3,20.29-4.5,5.41-9,10.37-14.4,14.88-6.75,5.86-15.3,12.17-22.94,14.88-2.7,.9-10.35,4.06-10.35-1.8,0-1.8,.45-2.25,.45-3.16,.9-3.16,1.8-5.86,3.15-9.02,3.15-7.21,6.75-13.53,10.35-20.29l5.4-9.02c3.6-.9,6.75-3.61,9.45-5.41,5.85-4.51,11.7-9.92,17.09-14.88,9-7.66,17.54-15.78,25.64-24.35,6.3-6.76,12.6-13.53,18.44-20.74,9.9-11.72,19.34-23.9,27.89-36.07,4.05-6.31,8.1-12.17,11.7-18.49,2.7-5.41,5.4-10.37,7.2-16.23,1.35-4.06,1.8-8.57,0-12.62-3.6-6.31-12.15-8.11-18.44-5.86-7.2,3.16-13.5,8.57-18.89,13.98-5.85,4.96-10.8,10.82-16.2,16.68-14.4,16.68-26.99,34.71-38.69,53.2-7.2,11.27-13.5,22.54-19.79,34.26-3.15,5.41-5.85,10.82-8.55,16.23,.9-1.8-.45,.9-.9,1.35-.45,.9-1.35,1.8-1.8,3.16-8.1,12.62-15.75,25.25-22.04,38.77-2.7,5.41-4.95,11.72-4.95,18.03,0,8.57,9.45,12.17,16.65,13.07,10.35,1.35,20.24-3.61,28.79-9.02,7.65-4.96,14.85-11.27,21.14-18.03,4.95-4.96,9.45-10.37,13.95-15.78,4.05-4.96,8.1-10.82,10.8-16.68h2.7c17.55-.9,35.09-4.96,52.18-9.47l17.54-4.96c2.7-.9,4.05-3.61,1.8-6.31h0Z"/>
    <path class="cls-1" d="M1290.53,771.31l-82.88-41.26-87.69-40.73c-13.37,13.4-33.15,24.65-54.54,31.62l90.9,45.01c11.76-7.5,21.92-15.54,29.41-24.11l104.8,29.47Zm-258.8-58.94l-19.78-9.11-3.21,6.43,36.36,16.61c-6.42,.54-12.83,1.07-18.71,1.07-39.03,0-72.72-27.87-90.9-62.7l-106.41-52.51c.53,98.06,96.25,190.77,197.31,190.77,43.31,0,88.76-13.4,122.98-32.69l-117.63-57.87Zm-5.35-217.56c37.43,0,88.76,24.65,109.61,53.05l8.02,10.18,57.75-61.62-5.35-7.5c-28.34-37.51-106.41-69.66-170.04-69.66s-120.84,34.3-158.27,83.59l-67.37-6.97,134.21,63.23c17.65-35.37,51.87-64.3,91.43-64.3h0Zm-218.69,99.13l122.98,60.55c-3.74-8.57-6.42-16.61-8.02-25.18l-104.8-49.3-104.8-50.37-3.21,6.43,102.13,48.76-4.28,9.11Zm114.43,2.68l-83.95-39.65c-2.67,7.5-4.28,15-5.88,23.04l89.3,40.73c-.53-3.21-.53-6.43-.53-9.65,0-4.82,.53-9.65,1.07-14.47h0Z"/>
  </g>
</svg>