<?xml version="1.0" encoding="UTF-8"?>
<svg id="Ebene_1" data-name="Ebene 1" xmlns="http://www.w3.org/2000/svg" xmlns:xlink="http://www.w3.org/1999/xlink" viewBox="0 0 317 48">
  <defs>
    <style>
      .cls-1 {
        fill: #11111f;
      }

      .cls-2 {
        clip-path: url(#clippath);
      }

      .cls-3 {
        fill: none;
      }
    </style>
    <clipPath id="clippath">
      <rect class="cls-3" width="2000.94" height="1706.68"/>
    </clipPath>
  </defs>
  <g class="cls-2">
    <path class="cls-1" d="M971.64,998.16c1.8-.9,3.15-3.14,4.05-4.49,1.8-3.14,3.6-6.29,4.95-9.43,3.6-8.08,6.75-16.17,9.45-24.25,2.25-6.74,4.5-14.37,2.7-21.56-1.8-6.74-4.95-13.02-10.8-17.51-10.8-9.43-26.99-8.53-39.59-4.94-15.29,4.04-29.69,11.68-43.19,19.76-22.94,13.92-44.53,30.09-64.33,47.6-25.64,22.9-49.48,48.05-71.08,74.55-24.74,30.99-47.23,65.12-59.38,103.29-5.85,17.06-9,35.48-7.65,53.44,.45,9.43,2.25,19.31,9,26.94,13.05,14.37,35.09,12.12,51.73,6.74,23.84-7.63,45.88-20.66,66.58-34.13,24.74-15.72,48.58-32.78,72.43-50.3,20.69-15.27,41.39-31.44,62.08-46.25,6.3-4.94,12.6-9.43,19.34-13.47,2.25-1.35,4.95-2.69,7.2-4.49,.9-.45,1.8-.9,3.15-1.8,.9-.45,2.7-.9,3.15-1.8-.9,.45-1.35,.9-2.25,1.35,.45,0,.45-.45,.9-.45,2.7-.9,4.05-3.59,1.8-6.29-2.25-2.24-6.75-4.04-9.9-2.69h2.7c-4.05-.45-8.1,1.8-11.7,3.59-3.15,1.35-6.3,3.59-9,5.39-8.55,5.39-16.19,11.23-24.29,17.06-21.59,16.17-42.74,32.33-64.78,48.5-23.39,17.06-47.23,34.13-71.98,49.4-11.25,6.74-22.49,13.02-33.74,18.41-2.7,1.35-5.4,2.25-8.1,3.59,0,0-.45,0-.9,.45-.9,.45,1.35-.9,.45-.45-.9,.45-1.35,.9-1.8,.9-1.35,.45-2.7,.9-4.05,1.35-4.5,1.8-9,3.14-13.95,4.49-.9,0-2.25,.45-3.15,.45-.45,.45-2.7,.45,0,0-.45,.45-1.35,.45-1.8,.45-1.8,.45-4.05,.45-5.85,.45h-1.35c-1.8,0,1.8,0,.45,0h-3.15c-.9-.45-4.05-.9-.45-.45-.9,0-1.8,0-2.25-.45-.45,0-.9-.45-1.35-.45-1.35-.45,2.25,.9,.9,.45-.9-.45-1.8-.9-2.25-1.35-1.8-.9,1.35,1.35,.45,.45q-.45-.45-.9-.45c-.9-.9-3.15-2.69-.9-.9-.45-.45-.9-.9-1.35-1.35-.45-.9-2.25-3.14-.9-1.35-.9-1.35-1.8-2.7-2.7-4.49,0-.9-.45-1.8-.9-2.69,0-.9,.45,1.35,.45,.45,0-.45-.45-.45-.45-.9s0-.9-.45-1.35c-.45-3.14-.9-5.84-.9-8.98-.45-4.04-.45-8.53-.45-12.57,0-4.94,.45-8.08,.9-12.57,2.7-18.41,8.55-36.38,16.64-52.99,16.19-35.48,40.94-68.26,67.03-97.45,11.7-13.47,23.84-26.05,36.44-38.17,4.95-4.94,10.35-9.88,15.74-14.37,2.25-2.24,4.5-4.04,6.75-5.84,.9-.9,1.8-1.8,3.15-2.69,.45-.45,.9-.9,1.35-1.35-1.35,1.35,.45,0,.9-.45,22.04-17.96,45.88-35.48,71.98-47.15,1.35-.9,3.15-1.8,4.95-2.69,1.35-.45-1.35,.9,.45,0,.45,0,.9-.45,.9-.45,1.35-.45,2.25-.9,3.15-.9,3.15-1.35,6.75-2.25,9.9-3.14,1.8-.45,3.15-.9,4.95-1.35,1.35,0-1.8,.45-.45,0h3.6c1.35-.45,3.15-.45,4.5-.45-2.7,0-.45,0,.45,0,.45,.45,1.35,.45,2.25,.45,2.25,.45-1.8-.45,0,0,.9,0,1.35,.45,1.8,.45s.45,.45,.9,.45c1.35,.45-1.8-.9-.9-.45s1.35,.9,2.25,.9c1.35,.9-1.8-.9,0,.45,.45,.45,.9,.45,1.35,.9,1.35,1.35-.9-.9,.45,.45,.45,.45,.9,.9,1.35,1.8,.45,0,.45,.45,.9,.9,.45,.9-.9-1.35-.45-.45,.45,.45,.9,1.35,1.35,1.8,.45,1.35,1.35,3.14,1.8,4.49,0,.45,.45,1.8,0,.45q0,.45,.45,.9c0,.9,.45,1.8,.45,2.69v2.69c0,.9,0-.9,0,.9-1.35,9.88-5.4,19.76-9,29.19-1.8,4.49-4.05,8.53-6.3,13.02-.45,.9,.45-.9,0,0-.45,.45-.45,.9-.9,.9,0,.9-.45,1.35-.9,2.24-.45,.45-.9,.9-1.35,1.35-.9,.9,1.35-.45,.45,0-3.15,1.35-1.8,4.94,.45,6.74,2.7,2.24,7.2,3.14,10.35,1.35h0Z"/>
    <path class="cls-1" d="M1048.64,1102.8v0Zm77.82-12.57c-5.85,2.24-12.15,4.04-18.44,5.84-3.6,1.35-7.2,2.24-11.25,3.14l-6.3,1.35c-.9,0-1.8,0-3.15,.45h-1.8c1.35,0-.45,.45-.45,.45l-12.15,1.35h-10.35c-4.05-8.98-16.19-10.78-24.74-5.84-3.15,1.8-1.8,5.39,.45,6.74,3.15,2.7,7.2,4.49,11.25,6.29v1.35c0,.9-.45,1.35-.45,2.24-.45,3.14-.9,5.84-1.8,8.98-2.25,8.53-5.4,17.06-9,25.6-8.55,21.56-19.79,42.21-31.94,61.97-8.55,13.92-17.99,27.39-27.89,40.87,10.35-33.23,21.14-66.46,33.74-98.35,16.64-41.76,36.44-81.73,61.63-119,8.55-12.12,17.09-24.25,26.54-35.93,4.5-5.84,9.45-11.68,14.84-17.51l8.1-9.43,3.6-4.04c.9,0,1.8-.45,2.25-.9,.9-1.8,2.25-4.04,1.8-5.84-.9-4.04-6.3-6.29-9.9-4.94-1.8,.45-3.6,1.35-4.95,3.14l-3.15,3.14-6.75,7.63c-4.5,4.49-8.55,9.43-12.6,14.37-7.65,9.43-14.84,18.86-22.04,28.74-13.5,18.41-26.09,38.17-36.89,57.93-22.04,39.52-39.14,81.73-53.53,124.39-9.9,28.74-18.44,58.38-27.44,87.57-.45,2.69,1.8,4.94,4.05,5.84,2.7,1.35,5.85,1.8,8.55,.45,3.6-1.8,6.3-5.84,9-8.98,4.95-5.84,9.45-12.13,13.95-17.96,12.6-17.51,24.74-35.48,35.54-53.89,12.15-20.21,22.94-41.31,31.04-63.32,2.7-7.63,5.4-14.82,6.75-22.45,.45-3.14,.9-6.29,1.35-8.98,8.1,.45,16.64-.45,24.29-.9,12.15-1.8,24.74-4.94,36.89-8.98,3.6,.9,6.75,0,9.45-1.8,1.35-.9,2.7-2.24,2.7-4.04,.9-4.94-6.75-8.53-10.8-6.74h0Z"/>
    <path class="cls-1" d="M1228.2,1021.06c10.35-13.47,20.69-26.94,32.84-38.62l4.5-4.04c3.6-2.69,6.3-5.84,10.35-7.63-.45,3.59-1.35,6.74-2.7,9.88-1.8,4.94-4.05,8.08-5.85,11.68l-2.7,4.49c-8.1,13.02-17.54,25.6-26.99,37.27-7.65,9.43-15.29,18.41-23.39,27.39-5.85,6.29-12.15,12.12-18.44,17.96-3.15,3.14-6.3,6.29-9.45,8.98,0-.45,.45-.45,.45-.9,12.15-23.35,26.09-45.36,41.39-66.46h0Zm75.12,68.26c-2.25-2.24-6.3-3.59-9.45-2.69-12.15,3.59-24.29,7.63-36.89,10.33-14.4,3.14-16.64,2.69-22.94,3.14h-2.7c0-1.35-.45-2.69-.9-4.04-4.05-6.29-12.15-7.63-18.44-4.49-4.95,1.8-7.65,7.63-4.05,12.12,1.8,2.25,4.05,3.59,6.75,4.49l-.45,.45c-4.05,7.19-9.45,13.92-15.29,20.21-4.5,5.39-9,10.33-14.4,14.82-6.75,5.84-15.29,12.12-22.94,14.82-2.7,.9-10.35,4.04-10.35-1.8,0-1.8,.45-2.24,.45-3.14,.9-3.14,1.8-5.84,3.15-8.98,3.15-7.19,6.75-13.47,10.35-20.21l5.4-8.98c3.6-.9,6.75-3.59,9.45-5.39,5.85-4.49,11.7-9.88,17.09-14.82,9-7.63,17.54-15.72,25.64-24.25,6.3-6.74,12.6-13.47,18.44-20.66,9.9-11.68,19.34-23.8,27.89-35.93,4.05-6.29,8.1-12.12,11.7-18.41,2.7-5.39,5.4-10.33,7.2-16.17,1.35-4.04,1.8-8.53,0-12.57-3.6-6.29-12.15-8.08-18.44-5.84-7.2,3.14-13.5,8.53-18.89,13.92-5.85,4.94-10.8,10.78-16.19,16.62-14.4,16.62-26.99,34.58-38.69,52.99-7.2,11.23-13.5,22.45-19.79,34.13-3.15,5.39-5.85,10.78-8.55,16.17,.9-1.8-.45,.9-.9,1.35-.45,.9-1.35,1.8-1.8,3.14-8.1,12.57-15.74,25.15-22.04,38.62-2.7,5.39-4.95,11.68-4.95,17.96,0,8.53,9.45,12.13,16.64,13.02,10.35,1.35,20.24-3.59,28.79-8.98,7.65-4.94,14.84-11.23,21.14-17.96,4.95-4.94,9.45-10.33,13.95-15.72,4.05-4.94,8.1-10.78,10.8-16.62h2.7c17.54-.9,35.09-4.94,52.18-9.43l17.54-4.94c2.7-.9,4.05-3.59,1.8-6.29h0Z"/>
    <path class="cls-1" d="M1290.8,768.28l-82.88-41.1-87.69-40.57c-13.37,13.34-33.15,24.55-54.54,31.49l90.89,44.84c11.76-7.47,21.92-15.48,29.41-24.02l104.8,29.36Zm-258.78-58.71l-19.78-9.07-3.21,6.4,36.36,16.55c-6.42,.53-12.83,1.07-18.71,1.07-39.03,0-72.72-27.76-90.89-62.45l-106.4-52.31c.53,97.68,96.24,190.02,197.3,190.02,43.31,0,88.76-13.34,122.98-32.56l-117.63-57.65Zm-5.35-216.71c37.43,0,88.76,24.55,109.61,52.84l8.02,10.14,57.75-61.38-5.35-7.47c-28.34-37.36-106.4-69.39-170.03-69.39s-120.84,34.16-158.26,83.27l-67.37-6.94,134.2,62.98c17.64-35.23,51.86-64.05,91.43-64.05h0Zm-218.68,98.75l122.98,60.31c-3.74-8.54-6.42-16.55-8.02-25.09l-104.8-49.11-104.8-50.17-3.21,6.41,102.12,48.57-4.28,9.07Zm114.42,2.67l-83.94-39.5c-2.67,7.47-4.28,14.95-5.88,22.95l89.29,40.57c-.53-3.2-.53-6.4-.53-9.61,0-4.8,.53-9.61,1.07-14.41h0Z"/>
  </g>
</svg>